<svg width="88" height="32" viewBox="0 0 88 32" fill="none" xmlns="http://www.w3.org/2000/svg">
<rect width="88" height="31" fill="#11111B"/>
<line x1="0.000184675" y1="30.4835" x2="88.0002" y2="30.516" stroke="#151515"/>
<line x1="0.000184675" y1="0.5" x2="88.0002" y2="0.532503" stroke="#21212B"/>
<line x1="87.5" y1="30" x2="87.5" y2="1" stroke="#151515"/>
<line x1="0.5" y1="30" x2="0.499994" y2="9.97287e-08" stroke="#21212B"/>
<path d="M70.4831 20.1801C70.4831 19.7305 70.5617 19.2706 70.6064 18.8238C70.6997 17.8913 70.7797 16.9639 70.9855 16.0471C71.2061 15.0645 71.292 14.0613 71.4605 13.0694C71.5913 12.2991 71.6671 11.4782 71.6751 10.6946C71.6764 10.5712 71.5911 10.0595 71.6842 9.95475C71.6976 9.93972 71.737 9.98552 71.7573 9.98671C71.7977 9.98909 71.8424 9.97886 71.8806 9.99585C72.2572 10.1632 72.5093 10.4953 72.8351 10.7585C73.3854 11.2032 74.0678 11.4312 74.5842 11.9094C74.6865 12.004 74.8932 12.1918 75.0044 12.2474" stroke="#A6FFB0" stroke-width="1.25" stroke-linecap="round"/>
<path d="M75.0455 12.2474C75.2575 12.2474 75.4649 12.2053 75.6757 12.1858C76.4016 12.1185 77.1465 12.1652 77.8747 12.1652C77.9185 12.1652 79.2456 12.2514 79.2768 12.1424C79.3861 11.7599 79.873 11.4107 80.1422 11.1376C80.4162 10.8598 80.674 10.5685 80.9643 10.3065C81.1091 10.1757 81.2708 9.9257 81.4575 9.86346" stroke="#A6FFB0" stroke-width="1.25" stroke-linecap="round"/>
<path d="M81.4575 9.86346C81.7077 10.4504 81.7711 11.0845 81.8274 11.7176C81.9498 13.0944 82.0329 14.5205 81.9256 15.9033C81.8552 16.8106 81.7452 17.7075 81.7452 18.6183C81.7452 18.906 81.7452 19.1937 81.7452 19.4815C81.7452 19.6163 81.7184 19.7712 81.8274 19.8742C81.9049 19.9474 81.9096 19.9261 81.9096 20.0569" stroke="#A6FFB0" stroke-width="1.25" stroke-linecap="round"/>
<path d="M74.3056 14.508C74.2391 14.508 73.5736 14.7031 73.5841 14.7135C73.8559 14.9854 74.167 14.788 74.3445 14.5514C74.6056 14.2032 73.3565 14.4221 73.7302 14.7957C73.8199 14.8855 74.0971 14.8671 74.1504 14.7546C74.2336 14.5789 74.0378 14.3888 73.9357 14.5674C73.918 14.5984 73.8557 14.6624 73.9037 14.7044C73.9295 14.7269 73.9363 14.4346 73.9311 14.4053C73.9136 14.3046 73.7284 14.097 73.616 14.097C73.5294 14.097 73.5308 14.5225 73.5247 14.5902" stroke="#A6FFB0" stroke-width="1.25" stroke-linecap="round"/>
<path d="M78.9913 14.4669C78.8105 14.2116 78.6214 14.5884 78.6214 14.7866C78.6214 15.1806 79.2136 15.2705 79.5211 15.2022C79.8459 15.13 79.4876 14.7277 79.2881 14.7135C79.1547 14.704 78.9502 14.5897 78.9502 14.8185C78.9502 14.993 79.1508 15.1476 79.1123 14.8779C79.0745 14.613 78.3879 14.6486 78.8543 15.1337C78.9084 15.19 79.69 15.8189 79.69 15.4693C79.69 15.1817 79.3388 14.9601 79.0735 14.9601" stroke="#A6FFB0" stroke-width="1.25" stroke-linecap="round"/>
<path d="M74.2234 16.0288C74.2234 16.4209 74.3311 16.8236 74.4883 17.182C74.5839 17.4 74.7268 17.7231 74.9633 17.8282C75.2135 17.9394 75.4965 17.3835 75.5981 17.2413C75.7152 17.0773 75.7717 16.8849 75.8584 16.7047C75.9333 16.5489 75.9003 16.6147 75.9315 16.7527C76.0506 17.2805 76.3942 18.4832 77.1805 18.326C77.5908 18.2439 77.8476 17.5977 78.0049 17.2802C78.1119 17.0641 78.3459 16.6986 78.1282 16.4809" stroke="#A6FFB0" stroke-width="1.25" stroke-linecap="round"/>
<rect x="66.281" y="9" width="12.6637" height="11.6276" fill="#11111B"/>
<path d="M67.0294 20.0075C67.0294 19.5578 67.108 19.0979 67.1527 18.6511C67.2459 17.7187 67.3259 16.7912 67.5318 15.8744C67.7523 14.8918 67.8383 13.8886 68.0067 12.8967C68.1375 12.1264 68.2134 11.3055 68.2214 10.5219C68.2226 10.3986 68.1374 9.88685 68.2305 9.78208C68.2439 9.76705 68.2832 9.81285 68.3036 9.81405C68.344 9.81642 68.3886 9.80619 68.4269 9.82318C68.8035 9.99055 69.0556 10.3226 69.3814 10.5859C69.9316 11.0305 70.614 11.2585 71.1305 11.7367C71.2327 11.8314 71.4395 12.0191 71.5507 12.0747" stroke="#5888FF" stroke-width="1.25" stroke-linecap="round"/>
<path d="M71.5917 12.0747C71.8037 12.0747 72.0111 12.0326 72.2219 12.013C72.9478 11.9458 73.6927 11.9925 74.4209 11.9925C74.4647 11.9925 75.7918 12.0787 75.823 11.9696C75.9323 11.5872 76.4192 11.2379 76.6884 10.9649C76.9624 10.6871 77.2203 10.3957 77.5105 10.1337C77.6553 10.0029 77.817 9.75297 78.0037 9.69073" stroke="#5888FF" stroke-width="1.25" stroke-linecap="round"/>
<path d="M78.0037 9.69073C78.2539 10.2777 78.3173 10.9118 78.3736 11.5449C78.496 12.9217 78.5791 14.3478 78.4718 15.7305C78.4014 16.6379 78.2914 17.5348 78.2914 18.4456C78.2914 18.7333 78.2914 19.021 78.2914 19.3087C78.2914 19.4436 78.2646 19.5985 78.3736 19.7015C78.4511 19.7746 78.4558 19.7533 78.4558 19.8842" stroke="#5888FF" stroke-width="1.25" stroke-linecap="round"/>
<path d="M70.8519 14.3353C70.7853 14.3353 70.1199 14.5304 70.1303 14.5409C70.4021 14.8127 70.7133 14.6153 70.8907 14.3787C71.1518 14.0306 69.9028 14.2494 70.2764 14.6231C70.3662 14.7128 70.6433 14.6944 70.6966 14.582C70.7798 14.4062 70.584 14.2161 70.4819 14.3947C70.4642 14.4258 70.402 14.4897 70.45 14.5317C70.4757 14.5543 70.4825 14.262 70.4774 14.2326C70.4599 14.1319 70.2747 13.9243 70.1623 13.9243C70.0756 13.9243 70.0771 14.3498 70.0709 14.4175" stroke="#5888FF" stroke-width="1.25" stroke-linecap="round"/>
<path d="M75.5376 14.2943C75.3568 14.039 75.1676 14.4158 75.1676 14.614C75.1676 15.008 75.7599 15.0979 76.0673 15.0296C76.3922 14.9574 76.0338 14.5551 75.8344 14.5409C75.701 14.5314 75.4965 14.4171 75.4965 14.6459C75.4965 14.8204 75.6971 14.975 75.6586 14.7053C75.6207 14.4404 74.9341 14.476 75.4005 14.961C75.4547 15.0174 76.2363 15.6463 76.2363 15.2967C76.2363 15.009 75.8851 14.7875 75.6198 14.7875" stroke="#5888FF" stroke-width="1.25" stroke-linecap="round"/>
<path d="M70.7697 15.8561C70.7697 16.2483 70.8774 16.6509 71.0346 17.0093C71.1302 17.2274 71.273 17.5504 71.5095 17.6555C71.7598 17.7667 72.0428 17.2109 72.1443 17.0687C72.2615 16.9046 72.318 16.7123 72.4047 16.532C72.4796 16.3762 72.4466 16.4421 72.4777 16.58C72.5969 17.1078 72.9405 18.3106 73.7268 18.1533C74.1371 18.0713 74.3938 17.425 74.5511 17.1075C74.6581 16.8914 74.8921 16.526 74.6744 16.3083" stroke="#5888FF" stroke-width="1.25" stroke-linecap="round"/>
<rect x="63" y="9" width="12.2353" height="12" fill="#11111B"/>
<path d="M63.4166 20.1563C63.4166 19.7067 63.4952 19.2468 63.5399 18.8C63.6332 17.8675 63.7132 16.9401 63.919 16.0233C64.1396 15.0407 64.2255 14.0375 64.394 13.0456C64.5248 12.2753 64.6006 11.4544 64.6086 10.6708C64.6099 10.5474 64.5246 10.0357 64.6177 9.93094C64.6311 9.91591 64.6705 9.96171 64.6908 9.96291C64.7312 9.96529 64.7759 9.95505 64.8141 9.97204C65.1907 10.1394 65.4428 10.4715 65.7686 10.7347C66.3189 11.1794 67.0013 11.4074 67.5177 11.8856C67.62 11.9802 67.8267 12.168 67.9379 12.2235" stroke="white" stroke-width="1.25" stroke-linecap="round"/>
<path d="M67.979 12.2235C68.1911 12.2235 68.3984 12.1814 68.6093 12.1618C69.3352 12.0946 70.08 12.1413 70.8083 12.1413C70.852 12.1413 72.1792 12.2275 72.2103 12.1184C72.3196 11.736 72.8066 11.3867 73.0757 11.1137C73.3497 10.8359 73.6076 10.5445 73.8978 10.2825C74.0427 10.1517 74.2043 9.90177 74.391 9.83954" stroke="white" stroke-width="1.25" stroke-linecap="round"/>
<path d="M74.391 9.83954C74.6412 10.4265 74.7047 11.0606 74.7609 11.6937C74.8833 13.0705 74.9664 14.4966 74.8591 15.8793C74.7887 16.7867 74.6787 17.6836 74.6787 18.5944C74.6787 18.8821 74.6787 19.1698 74.6787 19.4575C74.6787 19.5924 74.6519 19.7473 74.7609 19.8503C74.8384 19.9234 74.8431 19.9021 74.8431 20.033" stroke="white" stroke-width="1.25" stroke-linecap="round"/>
<path d="M67.2392 14.4841C67.1727 14.4841 66.5072 14.6792 66.5176 14.6896C66.7895 14.9614 67.1006 14.7641 67.278 14.5275C67.5391 14.1793 66.2901 14.3981 66.6638 14.7718C66.7535 14.8615 67.0307 14.8431 67.0839 14.7307C67.1672 14.5549 66.9713 14.3649 66.8693 14.5435C66.8515 14.5745 66.7893 14.6384 66.8373 14.6805C66.8631 14.703 66.8698 14.4107 66.8647 14.3813C66.8472 14.2806 66.662 14.0731 66.5496 14.0731C66.4629 14.0731 66.4644 14.4986 66.4583 14.5663" stroke="white" stroke-width="1.25" stroke-linecap="round"/>
<path d="M71.9249 14.443C71.7441 14.1878 71.5549 14.5645 71.5549 14.7627C71.5549 15.1567 72.1472 15.2466 72.4546 15.1783C72.7795 15.1061 72.4211 14.7039 72.2217 14.6896C72.0883 14.6801 71.8838 14.5658 71.8838 14.7947C71.8838 14.9691 72.0844 15.1237 72.0459 14.854C72.008 14.5892 71.3214 14.6247 71.7878 15.1098C71.842 15.1661 72.6236 15.795 72.6236 15.4455C72.6236 15.1578 72.2724 14.9362 72.0071 14.9362" stroke="white" stroke-width="1.25" stroke-linecap="round"/>
<path d="M67.157 16.0049C67.157 16.397 67.2647 16.7997 67.4219 17.158C67.5175 17.3761 67.6603 17.6992 67.8968 17.8043C68.1471 17.9155 68.4301 17.3596 68.5316 17.2174C68.6488 17.0534 68.7053 16.861 68.7919 16.6808C68.8669 16.5249 68.8339 16.5908 68.865 16.7287C68.9842 17.2565 69.3278 18.4593 70.1141 18.3021C70.5244 18.22 70.7811 17.5738 70.9384 17.2562C71.0454 17.0401 71.2794 16.6747 71.0617 16.457" stroke="white" stroke-width="1.25" stroke-linecap="round"/>
<path d="M8.992 15.452C8.992 15.676 8.992 15.928 8.992 16.208C9 16.488 9.004 16.78 9.004 17.084C9.004 17.38 9.004 17.676 9.004 17.972C9.004 18.26 9 18.528 8.992 18.776C8.984 18.896 8.972 19.028 8.956 19.172C8.94 19.308 8.908 19.436 8.86 19.556C8.812 19.676 8.736 19.776 8.632 19.856C8.536 19.928 8.404 19.96 8.236 19.952C7.988 19.936 7.808 19.828 7.696 19.628C7.592 19.428 7.532 19.148 7.516 18.788C7.516 18.604 7.512 18.392 7.504 18.152C7.504 17.912 7.5 17.668 7.492 17.42C7.492 17.172 7.492 16.932 7.492 16.7C7.492 16.46 7.492 16.244 7.492 16.052C7.492 15.94 7.488 15.804 7.48 15.644C7.48 15.484 7.484 15.32 7.492 15.152C7.5 14.984 7.52 14.824 7.552 14.672C7.584 14.512 7.636 14.38 7.708 14.276C7.764 14.212 7.844 14.164 7.948 14.132C8.052 14.092 8.16 14.072 8.272 14.072C8.392 14.072 8.504 14.092 8.608 14.132C8.72 14.172 8.8 14.228 8.848 14.3C8.88 14.348 8.904 14.416 8.92 14.504C8.936 14.592 8.948 14.692 8.956 14.804C8.972 14.908 8.98 15.02 8.98 15.14C8.988 15.252 8.992 15.356 8.992 15.452ZM8.536 13.028C8.288 13.092 8.08 13.068 7.912 12.956C7.752 12.836 7.652 12.66 7.612 12.428C7.58 12.26 7.592 12.112 7.648 11.984C7.704 11.856 7.788 11.76 7.9 11.696C8.012 11.624 8.14 11.592 8.284 11.6C8.428 11.608 8.572 11.664 8.716 11.768C8.852 11.864 8.948 11.976 9.004 12.104C9.068 12.232 9.088 12.356 9.064 12.476C9.048 12.596 8.996 12.708 8.908 12.812C8.82 12.908 8.696 12.98 8.536 13.028ZM10.1873 15.716C10.1873 15.532 10.1833 15.336 10.1753 15.128C10.1753 14.92 10.2113 14.732 10.2833 14.564C10.3473 14.412 10.4513 14.304 10.5953 14.24C10.7473 14.168 10.8953 14.152 11.0393 14.192C11.1833 14.216 11.2953 14.26 11.3753 14.324C11.4553 14.388 11.5113 14.464 11.5433 14.552C11.5833 14.632 11.6073 14.728 11.6153 14.84C11.6233 14.944 11.6313 15.048 11.6393 15.152C11.7193 15.008 11.8193 14.892 11.9393 14.804C12.0593 14.716 12.1833 14.644 12.3113 14.588C12.4393 14.532 12.5593 14.492 12.6713 14.468C12.7913 14.444 12.8833 14.432 12.9473 14.432C13.2513 14.432 13.5513 14.5 13.8473 14.636C14.1513 14.764 14.4033 14.948 14.6033 15.188C14.7153 15.332 14.7993 15.484 14.8553 15.644C14.9193 15.796 14.9633 15.956 14.9873 16.124C15.0193 16.292 15.0393 16.464 15.0473 16.64C15.0553 16.808 15.0633 16.98 15.0713 17.156C15.1113 17.668 15.1113 18.176 15.0713 18.68C15.0633 18.784 15.0593 18.904 15.0593 19.04C15.0593 19.176 15.0473 19.312 15.0233 19.448C15.0073 19.576 14.9713 19.692 14.9153 19.796C14.8673 19.892 14.7833 19.952 14.6633 19.976C14.4953 20.016 14.3553 20.024 14.2433 20C14.1393 19.984 14.0553 19.948 13.9913 19.892C13.9273 19.836 13.8793 19.764 13.8473 19.676C13.8153 19.588 13.7873 19.488 13.7633 19.376C13.7473 19.288 13.7313 19.188 13.7153 19.076C13.7073 18.956 13.6993 18.836 13.6913 18.716C13.6913 18.596 13.6873 18.48 13.6793 18.368C13.6793 18.248 13.6793 18.14 13.6793 18.044C13.6793 17.892 13.6753 17.724 13.6673 17.54C13.6593 17.356 13.6593 17.184 13.6673 17.024C13.6673 16.648 13.5673 16.364 13.3673 16.172C13.1753 15.972 12.9113 15.888 12.5753 15.92C12.3193 15.952 12.0953 16.056 11.9033 16.232C11.7113 16.4 11.6193 16.62 11.6273 16.892C11.6273 16.996 11.6273 17.092 11.6273 17.18C11.6273 17.268 11.6233 17.356 11.6153 17.444C11.6153 17.532 11.6153 17.628 11.6153 17.732C11.6153 17.836 11.6153 17.952 11.6153 18.08C11.6153 18.344 11.6153 18.624 11.6153 18.92C11.6153 19.208 11.5793 19.444 11.5073 19.628C11.4433 19.82 11.3353 19.952 11.1833 20.024C11.0313 20.096 10.8513 20.076 10.6433 19.964C10.5553 19.916 10.4833 19.852 10.4273 19.772C10.3793 19.684 10.3393 19.592 10.3073 19.496C10.2833 19.4 10.2673 19.304 10.2593 19.208C10.2513 19.104 10.2433 19.008 10.2353 18.92C10.2113 18.656 10.1953 18.412 10.1873 18.188C10.1873 17.956 10.1873 17.708 10.1873 17.444V15.716ZM19.8138 11.612C19.9658 11.572 20.0978 11.568 20.2098 11.6C20.3298 11.624 20.4298 11.676 20.5098 11.756C20.5978 11.836 20.6618 11.936 20.7018 12.056C20.7498 12.176 20.7738 12.308 20.7738 12.452C20.7818 12.852 20.7818 13.164 20.7738 13.388C20.7738 13.612 20.7738 13.808 20.7738 13.976V17.66C20.7738 18.092 20.7738 18.452 20.7738 18.74C20.7738 19.028 20.7578 19.264 20.7258 19.448C20.7018 19.624 20.6538 19.756 20.5818 19.844C20.5178 19.932 20.4178 19.992 20.2818 20.024C20.1458 20.064 19.9658 20.084 19.7418 20.084C19.5258 20.084 19.2538 20.084 18.9258 20.084C18.0618 20.084 17.3778 19.88 16.8738 19.472C16.3778 19.064 16.1138 18.416 16.0818 17.528C16.0658 17.144 16.1138 16.792 16.2258 16.472C16.3378 16.152 16.5018 15.88 16.7178 15.656C16.9418 15.424 17.2138 15.248 17.5338 15.128C17.8618 15 18.2338 14.94 18.6498 14.948H19.3098V12.8C19.3098 12.672 19.3098 12.548 19.3098 12.428C19.3098 12.3 19.3218 12.184 19.3458 12.08C19.3698 11.968 19.4178 11.872 19.4898 11.792C19.5618 11.712 19.6698 11.652 19.8138 11.612ZM17.7258 18.272C17.8938 18.504 18.1978 18.632 18.6378 18.656C18.7258 18.664 18.8098 18.668 18.8898 18.668C18.9698 18.66 19.0418 18.648 19.1058 18.632C19.1778 18.624 19.2458 18.612 19.3098 18.596V16.376C19.0298 16.328 18.7738 16.3 18.5418 16.292C18.3178 16.276 18.0938 16.356 17.8698 16.532C17.7498 16.628 17.6578 16.752 17.5938 16.904C17.5298 17.048 17.4938 17.204 17.4858 17.372C17.4778 17.532 17.4938 17.692 17.5338 17.852C17.5738 18.012 17.6378 18.152 17.7258 18.272ZM23.2537 15.452C23.2537 15.676 23.2537 15.928 23.2537 16.208C23.2617 16.488 23.2657 16.78 23.2657 17.084C23.2657 17.38 23.2657 17.676 23.2657 17.972C23.2657 18.26 23.2617 18.528 23.2537 18.776C23.2457 18.896 23.2337 19.028 23.2177 19.172C23.2017 19.308 23.1697 19.436 23.1217 19.556C23.0737 19.676 22.9977 19.776 22.8937 19.856C22.7977 19.928 22.6657 19.96 22.4977 19.952C22.2497 19.936 22.0697 19.828 21.9577 19.628C21.8537 19.428 21.7937 19.148 21.7777 18.788C21.7777 18.604 21.7737 18.392 21.7657 18.152C21.7657 17.912 21.7617 17.668 21.7537 17.42C21.7537 17.172 21.7537 16.932 21.7537 16.7C21.7537 16.46 21.7537 16.244 21.7537 16.052C21.7537 15.94 21.7497 15.804 21.7417 15.644C21.7417 15.484 21.7457 15.32 21.7537 15.152C21.7617 14.984 21.7817 14.824 21.8137 14.672C21.8457 14.512 21.8977 14.38 21.9697 14.276C22.0257 14.212 22.1057 14.164 22.2097 14.132C22.3137 14.092 22.4217 14.072 22.5337 14.072C22.6537 14.072 22.7657 14.092 22.8697 14.132C22.9817 14.172 23.0617 14.228 23.1097 14.3C23.1417 14.348 23.1657 14.416 23.1817 14.504C23.1977 14.592 23.2097 14.692 23.2177 14.804C23.2337 14.908 23.2417 15.02 23.2417 15.14C23.2497 15.252 23.2537 15.356 23.2537 15.452ZM22.7977 13.028C22.5497 13.092 22.3417 13.068 22.1737 12.956C22.0137 12.836 21.9137 12.66 21.8737 12.428C21.8417 12.26 21.8537 12.112 21.9097 11.984C21.9657 11.856 22.0497 11.76 22.1617 11.696C22.2737 11.624 22.4017 11.592 22.5457 11.6C22.6897 11.608 22.8337 11.664 22.9777 11.768C23.1137 11.864 23.2097 11.976 23.2657 12.104C23.3297 12.232 23.3497 12.356 23.3257 12.476C23.3097 12.596 23.2577 12.708 23.1697 12.812C23.0817 12.908 22.9577 12.98 22.7977 13.028ZM28.4601 18.356C28.5561 18.332 28.6521 18.316 28.7481 18.308C28.8521 18.3 28.9441 18.312 29.0241 18.344C29.1121 18.376 29.1841 18.432 29.2401 18.512C29.2961 18.584 29.3241 18.688 29.3241 18.824C29.3241 18.92 29.3001 19.012 29.2521 19.1C29.2041 19.188 29.1441 19.268 29.0721 19.34C29.0001 19.412 28.9201 19.476 28.8321 19.532C28.7441 19.58 28.6601 19.62 28.5801 19.652C28.3481 19.756 28.0801 19.836 27.7761 19.892C27.4801 19.948 27.1721 19.968 26.8521 19.952C26.4201 19.936 26.0041 19.852 25.6041 19.7C25.2121 19.54 24.9041 19.28 24.6801 18.92C24.4721 18.568 24.3481 18.176 24.3081 17.744C24.2681 17.312 24.2881 16.904 24.3681 16.52C24.4561 16.056 24.6041 15.68 24.8121 15.392C25.0281 15.096 25.2841 14.86 25.5801 14.684C25.9401 14.476 26.3441 14.368 26.7921 14.36C27.2401 14.352 27.6681 14.44 28.0761 14.624C28.3481 14.744 28.5921 14.908 28.8081 15.116C29.0241 15.316 29.1881 15.56 29.3001 15.848C29.3321 15.92 29.3561 16.008 29.3721 16.112C29.3961 16.216 29.4121 16.328 29.4201 16.448C29.4281 16.56 29.4281 16.672 29.4201 16.784C29.4121 16.896 29.3921 16.996 29.3601 17.084C29.3121 17.228 29.2521 17.34 29.1801 17.42C29.1081 17.5 29.0161 17.56 28.9041 17.6C28.7921 17.64 28.6561 17.668 28.4961 17.684C28.3441 17.692 28.1601 17.7 27.9441 17.708C27.7521 17.716 27.5721 17.72 27.4041 17.72C27.2361 17.72 27.0641 17.72 26.8881 17.72C26.7121 17.712 26.5281 17.708 26.3361 17.708C26.1521 17.7 25.9441 17.692 25.7121 17.684C25.6881 17.844 25.7081 17.984 25.7721 18.104C25.8441 18.216 25.9401 18.312 26.0601 18.392C26.1801 18.464 26.3161 18.52 26.4681 18.56C26.6201 18.6 26.7681 18.624 26.9121 18.632C27.1841 18.648 27.4441 18.628 27.6921 18.572C27.9401 18.508 28.1961 18.436 28.4601 18.356ZM27.9441 16.028C27.7921 15.852 27.6321 15.724 27.4641 15.644C27.3361 15.588 27.2001 15.564 27.0561 15.572C26.9201 15.572 26.7881 15.592 26.6601 15.632C26.4281 15.688 26.2321 15.808 26.0721 15.992C26.0561 16.008 26.0281 16.048 25.9881 16.112C25.9481 16.168 25.9081 16.228 25.8681 16.292C25.8361 16.356 25.8121 16.416 25.7961 16.472C25.7801 16.528 25.7881 16.556 25.8201 16.556H28.1721C28.1641 16.444 28.1441 16.352 28.1121 16.28C28.0801 16.2 28.0241 16.116 27.9441 16.028ZM33.8342 14.924C33.9702 14.964 34.0582 15.04 34.0982 15.152C34.1382 15.256 34.1502 15.368 34.1342 15.488C34.0862 15.736 33.9502 15.888 33.7262 15.944C33.5982 15.976 33.4662 15.992 33.3302 15.992C33.2022 15.992 33.0702 15.996 32.9342 16.004V18.776C32.9342 18.968 32.9222 19.164 32.8982 19.364C32.8982 19.436 32.8782 19.512 32.8382 19.592C32.8222 19.632 32.8102 19.656 32.8022 19.664C32.8022 19.68 32.7942 19.704 32.7782 19.736C32.7302 19.824 32.6662 19.896 32.5862 19.952C32.4102 20.048 32.2222 20.072 32.0222 20.024C31.9022 20 31.8102 19.96 31.7462 19.904C31.6742 19.848 31.6222 19.78 31.5902 19.7C31.5742 19.66 31.5622 19.62 31.5542 19.58C31.5462 19.54 31.5342 19.5 31.5182 19.46C31.5102 19.42 31.5022 19.384 31.4942 19.352C31.4942 19.312 31.4942 19.28 31.4942 19.256V18.56C31.4942 18.144 31.4942 17.712 31.4942 17.264C31.5022 16.816 31.5062 16.384 31.5062 15.968C31.3222 15.96 31.1302 15.956 30.9302 15.956C30.7382 15.948 30.5982 15.9 30.5102 15.812C30.4622 15.764 30.4302 15.704 30.4142 15.632C30.3982 15.552 30.3902 15.472 30.3902 15.392C30.3982 15.312 30.4142 15.24 30.4382 15.176C30.4622 15.104 30.4942 15.052 30.5342 15.02C30.6382 14.924 30.7302 14.872 30.8102 14.864C30.8982 14.848 31.0062 14.836 31.1342 14.828C31.1502 14.828 31.2022 14.828 31.2902 14.828C31.3862 14.82 31.4462 14.816 31.4702 14.816C31.4782 14.544 31.4862 14.272 31.4942 14C31.5022 13.728 31.5262 13.48 31.5662 13.256C31.6142 13.024 31.6822 12.824 31.7702 12.656C31.8662 12.48 32.0102 12.348 32.2022 12.26C32.4342 12.156 32.6982 12.092 32.9942 12.068C33.2902 12.044 33.5582 12.08 33.7982 12.176C33.9102 12.216 34.0182 12.296 34.1222 12.416C34.2342 12.536 34.2862 12.668 34.2782 12.812C34.2702 12.956 34.2422 13.088 34.1942 13.208C34.1462 13.328 34.0422 13.408 33.8822 13.448C33.8102 13.464 33.7342 13.472 33.6542 13.472C33.5822 13.464 33.5062 13.46 33.4262 13.46C33.3462 13.46 33.2702 13.472 33.1982 13.496C33.1342 13.512 33.0782 13.548 33.0302 13.604C32.9902 13.652 32.9622 13.716 32.9462 13.796C32.9382 13.876 32.9302 13.96 32.9222 14.048C32.9142 14.136 32.9102 14.224 32.9102 14.312C32.9182 14.392 32.9222 14.46 32.9222 14.516V14.816C33.1062 14.832 33.2742 14.844 33.4262 14.852C33.5862 14.86 33.7222 14.884 33.8342 14.924ZM38.8898 18.356C38.9858 18.332 39.0818 18.316 39.1778 18.308C39.2818 18.3 39.3738 18.312 39.4538 18.344C39.5418 18.376 39.6138 18.432 39.6698 18.512C39.7258 18.584 39.7538 18.688 39.7538 18.824C39.7538 18.92 39.7298 19.012 39.6818 19.1C39.6338 19.188 39.5738 19.268 39.5018 19.34C39.4298 19.412 39.3498 19.476 39.2618 19.532C39.1738 19.58 39.0898 19.62 39.0098 19.652C38.7778 19.756 38.5098 19.836 38.2058 19.892C37.9098 19.948 37.6018 19.968 37.2818 19.952C36.8498 19.936 36.4338 19.852 36.0338 19.7C35.6418 19.54 35.3338 19.28 35.1098 18.92C34.9018 18.568 34.7778 18.176 34.7378 17.744C34.6978 17.312 34.7178 16.904 34.7978 16.52C34.8858 16.056 35.0338 15.68 35.2418 15.392C35.4578 15.096 35.7138 14.86 36.0098 14.684C36.3698 14.476 36.7738 14.368 37.2218 14.36C37.6698 14.352 38.0978 14.44 38.5058 14.624C38.7778 14.744 39.0218 14.908 39.2378 15.116C39.4538 15.316 39.6178 15.56 39.7298 15.848C39.7618 15.92 39.7858 16.008 39.8018 16.112C39.8258 16.216 39.8418 16.328 39.8498 16.448C39.8578 16.56 39.8578 16.672 39.8498 16.784C39.8418 16.896 39.8218 16.996 39.7898 17.084C39.7418 17.228 39.6818 17.34 39.6098 17.42C39.5378 17.5 39.4458 17.56 39.3338 17.6C39.2218 17.64 39.0858 17.668 38.9258 17.684C38.7738 17.692 38.5898 17.7 38.3738 17.708C38.1818 17.716 38.0018 17.72 37.8338 17.72C37.6658 17.72 37.4938 17.72 37.3178 17.72C37.1418 17.712 36.9578 17.708 36.7658 17.708C36.5818 17.7 36.3738 17.692 36.1418 17.684C36.1178 17.844 36.1378 17.984 36.2018 18.104C36.2738 18.216 36.3698 18.312 36.4898 18.392C36.6098 18.464 36.7458 18.52 36.8978 18.56C37.0498 18.6 37.1978 18.624 37.3418 18.632C37.6138 18.648 37.8738 18.628 38.1218 18.572C38.3698 18.508 38.6258 18.436 38.8898 18.356ZM38.3738 16.028C38.2218 15.852 38.0618 15.724 37.8938 15.644C37.7658 15.588 37.6298 15.564 37.4858 15.572C37.3498 15.572 37.2178 15.592 37.0898 15.632C36.8578 15.688 36.6618 15.808 36.5018 15.992C36.4858 16.008 36.4578 16.048 36.4178 16.112C36.3778 16.168 36.3378 16.228 36.2978 16.292C36.2658 16.356 36.2418 16.416 36.2258 16.472C36.2098 16.528 36.2178 16.556 36.2498 16.556H38.6018C38.5938 16.444 38.5738 16.352 38.5418 16.28C38.5098 16.2 38.4538 16.116 38.3738 16.028ZM42.6737 19.04C42.6657 19.08 42.6577 19.12 42.6497 19.16C42.6497 19.192 42.6497 19.228 42.6497 19.268L42.5777 19.52C42.5617 19.552 42.5497 19.572 42.5417 19.58L42.5057 19.652C42.4657 19.74 42.3937 19.812 42.2897 19.868C42.0977 19.964 41.8937 19.988 41.6777 19.94C41.5417 19.924 41.4337 19.884 41.3537 19.82C41.2737 19.764 41.2177 19.696 41.1857 19.616C41.1537 19.536 41.1297 19.456 41.1137 19.376C41.0897 19.296 41.0777 19.224 41.0777 19.16V12.44C41.0777 12.384 41.0777 12.336 41.0777 12.296C41.0857 12.248 41.0937 12.204 41.1017 12.164C41.1097 12.108 41.1177 12.06 41.1257 12.02C41.1417 11.98 41.1577 11.936 41.1737 11.888C41.1977 11.808 41.2417 11.744 41.3057 11.696C41.4017 11.624 41.4937 11.584 41.5817 11.576C41.6377 11.56 41.6897 11.552 41.7377 11.552C41.7857 11.544 41.8417 11.54 41.9057 11.54C42.0177 11.54 42.1457 11.572 42.2897 11.636C42.4017 11.7 42.4817 11.788 42.5297 11.9C42.6097 12.06 42.6497 12.208 42.6497 12.344C42.6577 12.424 42.6617 12.544 42.6617 12.704C42.6697 12.864 42.6737 12.984 42.6737 13.064V13.112C42.6897 13.368 42.6977 13.616 42.6977 13.856C42.6977 14.088 42.6937 14.344 42.6857 14.624C42.6857 14.896 42.6817 15.16 42.6737 15.416C42.6737 15.664 42.6737 15.912 42.6737 16.16V18.68C42.6737 18.712 42.6737 18.744 42.6737 18.776C42.6817 18.8 42.6857 18.828 42.6857 18.86C42.6857 18.94 42.6817 19 42.6737 19.04ZM45.7674 19.04C45.7594 19.08 45.7514 19.12 45.7434 19.16C45.7434 19.192 45.7434 19.228 45.7434 19.268L45.6714 19.52C45.6554 19.552 45.6434 19.572 45.6354 19.58L45.5994 19.652C45.5594 19.74 45.4874 19.812 45.3834 19.868C45.1914 19.964 44.9874 19.988 44.7714 19.94C44.6354 19.924 44.5274 19.884 44.4474 19.82C44.3674 19.764 44.3114 19.696 44.2794 19.616C44.2474 19.536 44.2234 19.456 44.2074 19.376C44.1834 19.296 44.1714 19.224 44.1714 19.16V12.44C44.1714 12.384 44.1714 12.336 44.1714 12.296C44.1794 12.248 44.1874 12.204 44.1954 12.164C44.2034 12.108 44.2114 12.06 44.2194 12.02C44.2354 11.98 44.2514 11.936 44.2674 11.888C44.2914 11.808 44.3354 11.744 44.3994 11.696C44.4954 11.624 44.5874 11.584 44.6754 11.576C44.7314 11.56 44.7834 11.552 44.8314 11.552C44.8794 11.544 44.9354 11.54 44.9994 11.54C45.1114 11.54 45.2394 11.572 45.3834 11.636C45.4954 11.7 45.5754 11.788 45.6234 11.9C45.7034 12.06 45.7434 12.208 45.7434 12.344C45.7514 12.424 45.7554 12.544 45.7554 12.704C45.7634 12.864 45.7674 12.984 45.7674 13.064V13.112C45.7834 13.368 45.7914 13.616 45.7914 13.856C45.7914 14.088 45.7874 14.344 45.7794 14.624C45.7794 14.896 45.7754 15.16 45.7674 15.416C45.7674 15.664 45.7674 15.912 45.7674 16.16V18.68C45.7674 18.712 45.7674 18.744 45.7674 18.776C45.7754 18.8 45.7794 18.828 45.7794 18.86C45.7794 18.94 45.7754 19 45.7674 19.04ZM48.1535 14.948C48.3935 14.828 48.6455 14.744 48.9095 14.696C49.1735 14.64 49.4335 14.628 49.6895 14.66C49.9535 14.684 50.2055 14.752 50.4455 14.864C50.6855 14.968 50.9095 15.12 51.1175 15.32C51.3255 15.528 51.4855 15.756 51.5975 16.004C51.7095 16.252 51.7895 16.528 51.8375 16.832C51.8695 17.04 51.9215 17.232 51.9935 17.408C52.0655 17.584 52.1415 17.76 52.2215 17.936C52.3095 18.112 52.3895 18.288 52.4615 18.464C52.5415 18.64 52.6055 18.824 52.6535 19.016C52.6935 19.2 52.6775 19.38 52.6055 19.556C52.5415 19.724 52.4055 19.828 52.1975 19.868C52.0775 19.892 51.9615 19.884 51.8495 19.844C51.7455 19.796 51.6495 19.732 51.5615 19.652C51.4735 19.564 51.3935 19.472 51.3215 19.376C51.2575 19.272 51.1975 19.176 51.1415 19.088C50.9575 19.328 50.7575 19.516 50.5415 19.652C50.3255 19.78 50.0655 19.864 49.7615 19.904C49.5055 19.936 49.2615 19.944 49.0295 19.928C48.7975 19.912 48.5495 19.868 48.2855 19.796C47.9415 19.708 47.6575 19.556 47.4335 19.34C47.2175 19.116 47.0495 18.86 46.9295 18.572C46.8175 18.276 46.7575 17.96 46.7495 17.624C46.7415 17.288 46.7815 16.956 46.8695 16.628C46.9815 16.196 47.1495 15.844 47.3735 15.572C47.5975 15.3 47.8575 15.092 48.1535 14.948ZM48.4535 16.352C48.3415 16.464 48.2535 16.596 48.1895 16.748C48.1255 16.9 48.0855 17.06 48.0695 17.228C48.0615 17.396 48.0775 17.564 48.1175 17.732C48.1575 17.9 48.2215 18.048 48.3095 18.176C48.3895 18.288 48.5255 18.384 48.7175 18.464C48.9095 18.536 49.1095 18.58 49.3175 18.596C49.5575 18.612 49.7655 18.548 49.9415 18.404C50.1255 18.26 50.2615 18.08 50.3495 17.864C50.4455 17.64 50.4895 17.404 50.4815 17.156C50.4735 16.9 50.4055 16.668 50.2775 16.46C50.1815 16.308 50.0535 16.196 49.8935 16.124C49.7415 16.052 49.5775 16.016 49.4015 16.016C49.2255 16.008 49.0495 16.036 48.8735 16.1C48.7055 16.156 48.5655 16.24 48.4535 16.352ZM56.5199 17.888C56.3679 17.792 56.1959 17.716 56.0039 17.66C55.8199 17.604 55.6279 17.552 55.4279 17.504C55.2359 17.456 55.0479 17.404 54.8639 17.348C54.6799 17.284 54.5119 17.196 54.3599 17.084C54.0319 16.836 53.8399 16.532 53.7839 16.172C53.7359 15.804 53.8159 15.436 54.0239 15.068C54.1359 14.876 54.2839 14.72 54.4679 14.6C54.6519 14.472 54.8519 14.376 55.0679 14.312C55.2919 14.24 55.5199 14.2 55.7519 14.192C55.9839 14.184 56.2039 14.196 56.4119 14.228C56.5479 14.252 56.6919 14.288 56.8439 14.336C56.9959 14.376 57.1359 14.432 57.2639 14.504C57.3999 14.576 57.5199 14.668 57.6239 14.78C57.7359 14.884 57.8159 15.016 57.8639 15.176C57.8959 15.28 57.8999 15.38 57.8759 15.476C57.8599 15.572 57.8199 15.652 57.7559 15.716C57.6999 15.78 57.6239 15.828 57.5279 15.86C57.4399 15.892 57.3439 15.9 57.2399 15.884C57.1199 15.86 57.0079 15.824 56.9039 15.776C56.7999 15.728 56.6959 15.676 56.5919 15.62C56.4879 15.564 56.3799 15.516 56.2679 15.476C56.1639 15.436 56.0519 15.416 55.9319 15.416C55.7479 15.408 55.5959 15.44 55.4759 15.512C55.3559 15.584 55.2719 15.672 55.2239 15.776C55.1839 15.88 55.1879 15.992 55.2359 16.112C55.2919 16.232 55.4039 16.336 55.5719 16.424C55.7239 16.504 55.8919 16.568 56.0759 16.616C56.2599 16.664 56.4399 16.712 56.6159 16.76C56.7999 16.808 56.9759 16.864 57.1439 16.928C57.3199 16.992 57.4759 17.08 57.6119 17.192C57.8759 17.408 58.0359 17.66 58.0919 17.948C58.1559 18.236 58.1399 18.52 58.0439 18.8C57.9479 19.08 57.7799 19.328 57.5399 19.544C57.3079 19.76 57.0319 19.904 56.7119 19.976C56.4799 20.024 56.2279 20.048 55.9559 20.048C55.6919 20.048 55.4279 20.02 55.1639 19.964C54.9079 19.908 54.6599 19.82 54.4199 19.7C54.1879 19.58 53.9919 19.428 53.8319 19.244C53.7199 19.116 53.6599 18.972 53.6519 18.812C53.6519 18.644 53.6839 18.5 53.7479 18.38C53.8199 18.252 53.9199 18.164 54.0479 18.116C54.1759 18.068 54.3199 18.096 54.4799 18.2C54.6079 18.288 54.7599 18.376 54.9359 18.464C55.1119 18.544 55.2879 18.608 55.4639 18.656C55.6399 18.704 55.8079 18.728 55.9679 18.728C56.1359 18.728 56.2799 18.692 56.3999 18.62C56.5759 18.508 56.6679 18.38 56.6759 18.236C56.6839 18.084 56.6319 17.968 56.5199 17.888Z" fill="white"/>
</svg>
